# Original unbranded upright arcade cabinet placeholder.
mtllib arcade-cabinet.mtl
v -0.72 0.00 -0.48
v  0.72 0.00 -0.48
v  0.72 2.40 -0.48
v -0.72 2.40 -0.48
v -0.72 0.00  0.48
v  0.72 0.00  0.48
v  0.72 2.40  0.18
v -0.72 2.40  0.18
v -0.78 2.40 -0.50
v  0.78 2.40 -0.50
v  0.78 2.92 -0.50
v -0.78 2.92 -0.50
v -0.78 2.40  0.18
v  0.78 2.40  0.18
v  0.78 2.92  0.18
v -0.78 2.92  0.18
v -0.58 1.48 -0.515
v  0.58 1.48 -0.515
v  0.58 2.28 -0.515
v -0.58 2.28 -0.515
v -0.76 1.20 -0.72
v  0.76 1.20 -0.72
v  0.62 1.48 -0.50
v -0.62 1.48 -0.50
v -0.52 1.34 -0.75
v  0.18 1.34 -0.75
v  0.18 1.42 -0.75
v -0.52 1.42 -0.75
v  0.35 1.32 -0.77
v  0.47 1.32 -0.77
v  0.47 1.44 -0.77
v  0.35 1.44 -0.77
v -0.34 0.36 -0.495
v  0.34 0.36 -0.495
v  0.34 0.94 -0.495
v -0.34 0.94 -0.495
v -0.22 0.47 -0.51
v -0.08 0.47 -0.51
v -0.08 0.66 -0.51
v -0.22 0.66 -0.51
v  0.08 0.47 -0.51
v  0.22 0.47 -0.51
v  0.22 0.66 -0.51
v  0.08 0.66 -0.51
usemtl cabinet
f 1 2 3 4
f 5 8 7 6
f 1 5 6 2
f 4 3 7 8
f 1 4 8 5
f 2 6 7 3
f 9 10 11 12
f 13 16 15 14
f 9 13 14 10
f 12 11 15 16
f 9 12 16 13
f 10 14 15 11
usemtl marquee
f 9 10 11 12
usemtl screen
f 17 18 19 20
usemtl trim
f 17 20 19 18
f 21 22 23 24
usemtl controls
f 25 26 27 28
f 29 30 31 32
usemtl metal
f 33 34 35 36
usemtl controls
f 37 38 39 40
f 41 42 43 44
